# xmcd
#
# Track frame offsets:
# 150
# 19866
# 36251
# 50146
# 67568
# 83489
# 96228
# 111598
# 126655
# 143943
# 157699
# 173375
# 189431
#
# Disc length: 2711 seconds
#
# Revision: 0
# Processed by: cddbd v1.5.1PL0 Copyright (c) Steve Scherf et al.
# Submitted via: Axialis_AX_CDPlayer 2.6
#
DISCID=a70a950d
DTITLE=Dierks Bentley - Dierks Bentley
DYEAR=1900
DGENRE=
TTITLE0=What Was I Thinkin'
TTITLE1=Whish It Would Break
TTITLE2=Forget About You
TTITLE3=I Can Only Think Of One
TTITLE4=My Last Name
TTITLE5=Bartenders, etc...
TTITLE6=Is Anybody Loving You These Days
TTITLE7=My Love Will Follow You
TTITLE8=How Am I Doin'
TTITLE9=Distant Shore
TTITLE10=I Bought The Shoes
TTITLE11=Whiskey Tears
TTITLE12=Train Travellin' (with the Del McCoury Band)
EXTD=
EXTT0=
EXTT1=
EXTT2=
EXTT3=
EXTT4=
EXTT5=
EXTT6=
EXTT7=
EXTT8=
EXTT9=
EXTT10=
EXTT11=
EXTT12=
PLAYORDER=
